%TF.GenerationSoftware,KiCad,Pcbnew,7.0.6*%
%TF.CreationDate,2023-08-02T21:58:42+08:00*%
%TF.ProjectId,Adapter,41646170-7465-4722-9e6b-696361645f70,rev?*%
%TF.SameCoordinates,Original*%
%TF.FileFunction,Profile,NP*%
%FSLAX46Y46*%
G04 Gerber Fmt 4.6, Leading zero omitted, Abs format (unit mm)*
G04 Created by KiCad (PCBNEW 7.0.6) date 2023-08-02 21:58:42*
%MOMM*%
%LPD*%
G01*
G04 APERTURE LIST*
%TA.AperFunction,Profile*%
%ADD10C,0.100000*%
%TD*%
G04 APERTURE END LIST*
D10*
X201041000Y-125984000D02*
X201041000Y-123063000D01*
X91440000Y-143510000D02*
X91440000Y-76200000D01*
X205613000Y-135001000D02*
X201041000Y-135001000D01*
X210820000Y-125984000D02*
X201041000Y-125984000D01*
X210820000Y-123063000D02*
X210820000Y-76200000D01*
X209677000Y-123063000D02*
X210820000Y-123063000D01*
X209677000Y-122047000D02*
X209677000Y-123063000D01*
X205613000Y-136017000D02*
X205613000Y-135001000D01*
X210820000Y-143510000D02*
X91440000Y-143510000D01*
X210820000Y-143510000D02*
X210820000Y-135001000D01*
X209677000Y-135001000D02*
X209677000Y-136017000D01*
X166370000Y-88900000D02*
X182880000Y-88900000D01*
X182880000Y-97790000D01*
X166370000Y-97790000D01*
X166370000Y-88900000D01*
X209677000Y-136017000D02*
X205613000Y-136017000D01*
X205613000Y-122047000D02*
X209677000Y-122047000D01*
X201041000Y-132080000D02*
X210820000Y-132080000D01*
X210820000Y-132080000D02*
X210820000Y-125984000D01*
X201041000Y-123063000D02*
X205613000Y-123063000D01*
X205613000Y-123063000D02*
X205613000Y-122047000D01*
X210820000Y-135001000D02*
X209677000Y-135001000D01*
X166370000Y-119380000D02*
X182880000Y-119380000D01*
X182880000Y-128270000D01*
X166370000Y-128270000D01*
X166370000Y-119380000D01*
X91440000Y-76200000D02*
X210820000Y-76200000D01*
X201041000Y-135001000D02*
X201041000Y-132080000D01*
M02*
