M48
; DRILL file {KiCad 7.0.6} date Wed Aug  2 22:02:10 2023
; FORMAT={-:-/ absolute / inch / decimal}
; #@! TF.CreationDate,2023-08-02T22:02:10+08:00
; #@! TF.GenerationSoftware,Kicad,Pcbnew,7.0.6
; #@! TF.FileFunction,Plated,1,2,PTH
FMAT,2
INCH
; #@! TA.AperFunction,Plated,PTH,ViaDrill
T1C0.0157
; #@! TA.AperFunction,Plated,PTH,ComponentDrill
T2C0.0236
; #@! TA.AperFunction,Plated,PTH,ComponentDrill
T3C0.0300
; #@! TA.AperFunction,Plated,PTH,ComponentDrill
T4C0.0315
; #@! TA.AperFunction,Plated,PTH,ComponentDrill
T5C0.0354
; #@! TA.AperFunction,Plated,PTH,ComponentDrill
T6C0.0374
; #@! TA.AperFunction,Plated,PTH,ComponentDrill
T7C0.0394
; #@! TA.AperFunction,Plated,PTH,ComponentDrill
T8C0.0906
; #@! TA.AperFunction,Plated,PTH,ViaDrill
T9C0.1300
%
G90
G05
T1
X4.14Y-3.97
X4.325Y-4.14
X4.325Y-4.295
X4.38Y-5.29
X4.385Y-4.47
X4.41Y-3.38
X4.43Y-4.045
X4.4303Y-4.3046
X4.53Y-4.05
X4.84Y-3.54
X4.85Y-3.83
X4.89Y-3.54
X5.0Y-3.41
X5.0Y-3.46
X6.35Y-4.11
X6.35Y-4.17
X6.47Y-3.92
X6.65Y-3.97
X7.08Y-4.1
X7.455Y-5.375
X7.5Y-5.205
X7.58Y-4.45
X7.7Y-4.84
X7.82Y-4.27
X7.82Y-4.54
X7.86Y-4.2
X7.89Y-4.26
X7.89Y-4.34
X7.93Y-4.28
X7.93Y-4.3374
X7.94Y-4.54
T3
X5.0Y-3.6
X5.0Y-3.7
X5.05Y-4.99
X5.1Y-3.6
X5.1Y-3.7
X5.15Y-4.99
X5.2Y-3.6
X5.2Y-3.7
X5.25Y-4.99
X5.3Y-3.6
X5.3Y-3.7
X5.35Y-4.99
X5.4Y-3.6
X5.4Y-3.7
T4
X5.9043Y-4.29
X6.0965Y-4.29
T6
X4.111Y-4.9122
X4.111Y-5.0106
X4.111Y-5.0894
X4.111Y-5.1878
X5.8Y-3.5744
X5.8Y-3.6728
X5.8Y-3.7516
X5.8Y-3.85
X5.8Y-4.7244
X5.8Y-4.8228
X5.8Y-4.9016
X5.8Y-5.0
T7
X4.6Y-3.05
X4.6Y-3.15
X4.6Y-5.5
X4.6Y-5.6
X4.7Y-3.05
X4.7Y-3.15
X4.7Y-5.5
X4.7Y-5.6
X4.8Y-3.05
X4.8Y-3.15
X4.8Y-5.5
X4.8Y-5.6
X4.9Y-3.05
X4.9Y-3.15
X4.9Y-5.5
X4.9Y-5.6
X5.0Y-3.05
X5.0Y-3.15
X5.0Y-5.5
X5.0Y-5.6
X5.1Y-3.05
X5.1Y-3.15
X5.1Y-5.5
X5.1Y-5.6
X5.2Y-3.05
X5.2Y-3.15
X5.2Y-5.5
X5.2Y-5.6
X5.3Y-3.05
X5.3Y-3.15
X5.3Y-5.5
X5.3Y-5.6
X5.4Y-3.05
X5.4Y-3.15
X5.4Y-5.5
X5.4Y-5.6
X5.5Y-3.05
X5.5Y-3.15
X5.5Y-5.5
X5.5Y-5.6
X5.6Y-3.05
X5.6Y-3.15
X5.6Y-5.5
X5.6Y-5.6
X5.7Y-3.05
X5.7Y-3.15
X5.7Y-5.5
X5.7Y-5.6
X5.8Y-3.05
X5.8Y-3.15
X5.8Y-5.5
X5.8Y-5.6
X5.9Y-3.05
X5.9Y-3.15
X5.9Y-5.5
X5.9Y-5.6
X6.0Y-3.05
X6.0Y-3.15
X6.0Y-5.5
X6.0Y-5.6
X6.1Y-3.05
X6.1Y-3.15
X6.1Y-5.5
X6.1Y-5.6
X6.2Y-3.05
X6.2Y-3.15
X6.2Y-5.5
X6.2Y-5.6
X6.3Y-3.05
X6.3Y-3.15
X6.3Y-5.5
X6.3Y-5.6
X6.4Y-3.05
X6.4Y-3.15
X6.4Y-5.5
X6.4Y-5.6
X6.5Y-3.05
X6.5Y-3.15
X6.5Y-5.5
X6.5Y-5.6
X6.6Y-3.05
X6.6Y-3.15
X6.6Y-5.5
X6.6Y-5.6
X6.7Y-3.05
X6.7Y-3.15
X6.7Y-5.5
X6.7Y-5.6
X6.8Y-3.05
X6.8Y-3.15
X6.8Y-5.5
X6.8Y-5.6
X6.9Y-3.05
X6.9Y-3.15
X6.9Y-5.5
X6.9Y-5.6
X7.0Y-3.05
X7.0Y-3.15
X7.0Y-5.5
X7.0Y-5.6
X7.1Y-3.05
X7.1Y-3.15
X7.1Y-5.5
X7.1Y-5.6
X7.2Y-3.05
X7.2Y-3.15
X7.2Y-5.5
X7.2Y-5.6
X7.3Y-3.05
X7.3Y-3.15
X7.3Y-5.5
X7.3Y-5.6
X7.4Y-3.05
X7.4Y-3.15
X7.4Y-5.5
X7.4Y-5.6
X7.5Y-3.05
X7.5Y-3.15
X7.5Y-5.5
X7.5Y-5.6
T8
X4.0043Y-4.7913
X4.0043Y-5.3087
X5.9067Y-3.4535
X5.9067Y-3.9709
X5.9067Y-4.6035
X5.9067Y-5.1209
T9
X3.75Y-3.15
X3.75Y-5.5
X4.1Y-3.1
X4.1Y-5.55
X7.8Y-3.1
X7.8Y-5.55
X8.15Y-3.15
X8.15Y-5.5
T2
G00X8.0061Y-4.1299
M15
G01X8.0494Y-4.1299
M16
G05
G00X8.0061Y-4.4701
M15
G01X8.0494Y-4.4701
M16
G05
G00X8.1766Y-4.1299
M15
G01X8.2081Y-4.1299
M16
G05
G00X8.1766Y-4.4701
M15
G01X8.2081Y-4.4701
M16
G05
T5
G00X3.7555Y-3.8646
M15
G01X3.724Y-3.8646
M16
G05
G00X3.7555Y-4.4354
M15
G01X3.724Y-4.4354
M16
G05
G00X4.0098Y-3.8646
M15
G01X3.939Y-3.8646
M16
G05
G00X4.0098Y-4.4354
M15
G01X3.939Y-4.4354
M16
G05
T0
M30
