%TF.GenerationSoftware,KiCad,Pcbnew,7.0.6*%
%TF.CreationDate,2023-08-02T21:58:42+08:00*%
%TF.ProjectId,Adapter,41646170-7465-4722-9e6b-696361645f70,rev?*%
%TF.SameCoordinates,Original*%
%TF.FileFunction,Soldermask,Top*%
%TF.FilePolarity,Negative*%
%FSLAX46Y46*%
G04 Gerber Fmt 4.6, Leading zero omitted, Abs format (unit mm)*
G04 Created by KiCad (PCBNEW 7.0.6) date 2023-08-02 21:58:42*
%MOMM*%
%LPD*%
G01*
G04 APERTURE LIST*
G04 Aperture macros list*
%AMRoundRect*
0 Rectangle with rounded corners*
0 $1 Rounding radius*
0 $2 $3 $4 $5 $6 $7 $8 $9 X,Y pos of 4 corners*
0 Add a 4 corners polygon primitive as box body*
4,1,4,$2,$3,$4,$5,$6,$7,$8,$9,$2,$3,0*
0 Add four circle primitives for the rounded corners*
1,1,$1+$1,$2,$3*
1,1,$1+$1,$4,$5*
1,1,$1+$1,$6,$7*
1,1,$1+$1,$8,$9*
0 Add four rect primitives between the rounded corners*
20,1,$1+$1,$2,$3,$4,$5,0*
20,1,$1+$1,$4,$5,$6,$7,0*
20,1,$1+$1,$6,$7,$8,$9,0*
20,1,$1+$1,$8,$9,$2,$3,0*%
G04 Aperture macros list end*
%ADD10R,1.700000X1.700000*%
%ADD11O,1.700000X1.700000*%
%ADD12RoundRect,0.200000X-0.200000X-0.275000X0.200000X-0.275000X0.200000X0.275000X-0.200000X0.275000X0*%
%ADD13C,0.650000*%
%ADD14R,1.150000X0.600000*%
%ADD15R,1.150000X0.300000*%
%ADD16O,2.100000X1.000000*%
%ADD17O,1.800000X1.000000*%
%ADD18RoundRect,0.250000X1.412500X0.550000X-1.412500X0.550000X-1.412500X-0.550000X1.412500X-0.550000X0*%
%ADD19RoundRect,0.200000X-0.275000X0.200000X-0.275000X-0.200000X0.275000X-0.200000X0.275000X0.200000X0*%
%ADD20R,0.625000X0.250000*%
%ADD21R,0.700000X0.450000*%
%ADD22R,0.575000X0.450000*%
%ADD23R,1.500000X1.600000*%
%ADD24C,1.600000*%
%ADD25C,3.000000*%
%ADD26RoundRect,0.200000X0.200000X0.275000X-0.200000X0.275000X-0.200000X-0.275000X0.200000X-0.275000X0*%
%ADD27C,1.524000*%
%ADD28R,1.524000X1.524000*%
%ADD29RoundRect,0.200000X0.275000X-0.200000X0.275000X0.200000X-0.275000X0.200000X-0.275000X-0.200000X0*%
%ADD30RoundRect,0.250000X0.250000X0.475000X-0.250000X0.475000X-0.250000X-0.475000X0.250000X-0.475000X0*%
%ADD31C,1.500000*%
%ADD32RoundRect,0.225000X-0.225000X-0.250000X0.225000X-0.250000X0.225000X0.250000X-0.225000X0.250000X0*%
%ADD33RoundRect,0.250000X-0.250000X-0.475000X0.250000X-0.475000X0.250000X0.475000X-0.250000X0.475000X0*%
%ADD34RoundRect,0.450000X-3.550000X0.450000X-3.550000X-0.450000X3.550000X-0.450000X3.550000X0.450000X0*%
%ADD35RoundRect,0.225000X0.225000X0.250000X-0.225000X0.250000X-0.225000X-0.250000X0.225000X-0.250000X0*%
%ADD36RoundRect,0.150000X-0.512500X-0.150000X0.512500X-0.150000X0.512500X0.150000X-0.512500X0.150000X0*%
%ADD37R,2.600000X0.300000*%
%ADD38O,3.300000X1.500000*%
%ADD39O,2.300000X1.500000*%
%ADD40R,1.200000X0.400000*%
%ADD41R,1.200000X2.500000*%
G04 APERTURE END LIST*
D10*
%TO.C,P1*%
X116840000Y-80010000D03*
D11*
X116840000Y-77470000D03*
X119380000Y-80010000D03*
X119380000Y-77470000D03*
X121920000Y-80010000D03*
X121920000Y-77470000D03*
X124460000Y-80010000D03*
X124460000Y-77470000D03*
X127000000Y-80010000D03*
X127000000Y-77470000D03*
X129540000Y-80010000D03*
X129540000Y-77470000D03*
X132080000Y-80010000D03*
X132080000Y-77470000D03*
X134620000Y-80010000D03*
X134620000Y-77470000D03*
X137160000Y-80010000D03*
X137160000Y-77470000D03*
X139700000Y-80010000D03*
X139700000Y-77470000D03*
X142240000Y-80010000D03*
X142240000Y-77470000D03*
X144780000Y-80010000D03*
X144780000Y-77470000D03*
X147320000Y-80010000D03*
X147320000Y-77470000D03*
X149860000Y-80010000D03*
X149860000Y-77470000D03*
X152400000Y-80010000D03*
X152400000Y-77470000D03*
X154940000Y-80010000D03*
X154940000Y-77470000D03*
X157480000Y-80010000D03*
X157480000Y-77470000D03*
X160020000Y-80010000D03*
X160020000Y-77470000D03*
X162560000Y-80010000D03*
X162560000Y-77470000D03*
X165100000Y-80010000D03*
X165100000Y-77470000D03*
X167640000Y-80010000D03*
X167640000Y-77470000D03*
X170180000Y-80010000D03*
X170180000Y-77470000D03*
X172720000Y-80010000D03*
X172720000Y-77470000D03*
X175260000Y-80010000D03*
X175260000Y-77470000D03*
X177800000Y-80010000D03*
X177800000Y-77470000D03*
X180340000Y-80010000D03*
X180340000Y-77470000D03*
X182880000Y-80010000D03*
X182880000Y-77470000D03*
X185420000Y-80010000D03*
X185420000Y-77470000D03*
X187960000Y-80010000D03*
X187960000Y-77470000D03*
X190500000Y-80010000D03*
X190500000Y-77470000D03*
%TD*%
D10*
%TO.C,P4*%
X116840000Y-142240000D03*
D11*
X116840000Y-139700000D03*
X119380000Y-142240000D03*
X119380000Y-139700000D03*
X121920000Y-142240000D03*
X121920000Y-139700000D03*
X124460000Y-142240000D03*
X124460000Y-139700000D03*
X127000000Y-142240000D03*
X127000000Y-139700000D03*
X129540000Y-142240000D03*
X129540000Y-139700000D03*
X132080000Y-142240000D03*
X132080000Y-139700000D03*
X134620000Y-142240000D03*
X134620000Y-139700000D03*
X137160000Y-142240000D03*
X137160000Y-139700000D03*
X139700000Y-142240000D03*
X139700000Y-139700000D03*
X142240000Y-142240000D03*
X142240000Y-139700000D03*
X144780000Y-142240000D03*
X144780000Y-139700000D03*
X147320000Y-142240000D03*
X147320000Y-139700000D03*
X149860000Y-142240000D03*
X149860000Y-139700000D03*
X152400000Y-142240000D03*
X152400000Y-139700000D03*
X154940000Y-142240000D03*
X154940000Y-139700000D03*
X157480000Y-142240000D03*
X157480000Y-139700000D03*
X160020000Y-142240000D03*
X160020000Y-139700000D03*
X162560000Y-142240000D03*
X162560000Y-139700000D03*
X165100000Y-142240000D03*
X165100000Y-139700000D03*
X167640000Y-142240000D03*
X167640000Y-139700000D03*
X170180000Y-142240000D03*
X170180000Y-139700000D03*
X172720000Y-142240000D03*
X172720000Y-139700000D03*
X175260000Y-142240000D03*
X175260000Y-139700000D03*
X177800000Y-142240000D03*
X177800000Y-139700000D03*
X180340000Y-142240000D03*
X180340000Y-139700000D03*
X182880000Y-142240000D03*
X182880000Y-139700000D03*
X185420000Y-142240000D03*
X185420000Y-139700000D03*
X187960000Y-142240000D03*
X187960000Y-139700000D03*
X190500000Y-142240000D03*
X190500000Y-139700000D03*
%TD*%
D12*
%TO.C,R3*%
X195200000Y-109220000D03*
X196850000Y-109220000D03*
%TD*%
D13*
%TO.C,J1*%
X204405000Y-112110000D03*
X204405000Y-106330000D03*
D14*
X203330000Y-112420000D03*
X203330000Y-111620000D03*
D15*
X203330000Y-110470000D03*
X203330000Y-109470000D03*
X203330000Y-108970000D03*
X203330000Y-107970000D03*
D14*
X203330000Y-106820000D03*
X203330000Y-106020000D03*
X203330000Y-106020000D03*
X203330000Y-106820000D03*
D15*
X203330000Y-107470000D03*
X203330000Y-108470000D03*
X203330000Y-109970000D03*
X203330000Y-110970000D03*
D14*
X203330000Y-111620000D03*
X203330000Y-112420000D03*
D16*
X203905000Y-113540000D03*
D17*
X208085000Y-113540000D03*
D16*
X203905000Y-104900000D03*
D17*
X208085000Y-104900000D03*
%TD*%
D18*
%TO.C,C2*%
X189227500Y-109220000D03*
X184152500Y-109220000D03*
%TD*%
D19*
%TO.C,RP3*%
X111252000Y-102744000D03*
X111252000Y-104394000D03*
%TD*%
D20*
%TO.C,U4*%
X107067500Y-109712000D03*
X107067500Y-109212000D03*
D21*
X107030000Y-108712000D03*
D20*
X107067500Y-108212000D03*
X107067500Y-107712000D03*
X106292500Y-107712000D03*
X106292500Y-108212000D03*
D22*
X106267500Y-108712000D03*
D20*
X106292500Y-109212000D03*
X106292500Y-109712000D03*
%TD*%
D23*
%TO.C,J3*%
X104420000Y-124770000D03*
D24*
X104420000Y-127270000D03*
X104420000Y-129270000D03*
X104420000Y-131770000D03*
D25*
X101710000Y-121700000D03*
X101710000Y-134840000D03*
%TD*%
D26*
%TO.C,R1*%
X196342000Y-118618000D03*
X194692000Y-118618000D03*
%TD*%
D27*
%TO.C,U3*%
X127000000Y-93980000D03*
X127000000Y-91440000D03*
X129540000Y-93980000D03*
X129540000Y-91440000D03*
X132080000Y-93980000D03*
X132080000Y-91440000D03*
X134620000Y-93980000D03*
X134620000Y-91440000D03*
X137160000Y-93980000D03*
X137160000Y-91440000D03*
D28*
X135890000Y-126746000D03*
D27*
X133350000Y-126746000D03*
X130810000Y-126746000D03*
X128270000Y-126746000D03*
%TD*%
D19*
%TO.C,RN0*%
X114300000Y-104204000D03*
X114300000Y-105854000D03*
%TD*%
D29*
%TO.C,RP2*%
X112776000Y-113601000D03*
X112776000Y-111951000D03*
%TD*%
D30*
%TO.C,C5*%
X177480000Y-106680000D03*
X175580000Y-106680000D03*
%TD*%
D31*
%TO.C,Y1*%
X154850000Y-108966000D03*
X149970000Y-108966000D03*
%TD*%
D32*
%TO.C,C6*%
X108475000Y-90932000D03*
X110025000Y-90932000D03*
%TD*%
D33*
%TO.C,C1*%
X175580000Y-114046000D03*
X177480000Y-114046000D03*
%TD*%
D34*
%TO.C,J2*%
X206646000Y-127032000D03*
X206646000Y-129032000D03*
X206646000Y-131032000D03*
%TD*%
D29*
%TO.C,RP1*%
X115824000Y-110045000D03*
X115824000Y-108395000D03*
%TD*%
D35*
%TO.C,C4*%
X177305000Y-109220000D03*
X175755000Y-109220000D03*
%TD*%
D19*
%TO.C,RN3*%
X109728000Y-101474000D03*
X109728000Y-103124000D03*
%TD*%
D29*
%TO.C,RN2*%
X111252000Y-112458000D03*
X111252000Y-110808000D03*
%TD*%
D35*
%TO.C,C7*%
X177305000Y-104140000D03*
X175755000Y-104140000D03*
%TD*%
D36*
%TO.C,U1*%
X194442500Y-112080000D03*
X194442500Y-113030000D03*
X194442500Y-113980000D03*
X196717500Y-113980000D03*
X196717500Y-113030000D03*
X196717500Y-112080000D03*
%TD*%
D37*
%TO.C,J4*%
X101710000Y-109910000D03*
X101710000Y-109410000D03*
X101710000Y-108910000D03*
X101710000Y-108410000D03*
X101710000Y-107910000D03*
X101710000Y-107410000D03*
X101710000Y-106910000D03*
X101710000Y-106410000D03*
X101710000Y-105910000D03*
X101710000Y-105410000D03*
X101710000Y-104910000D03*
X101710000Y-104410000D03*
X101710000Y-103910000D03*
X101710000Y-103410000D03*
X101710000Y-102910000D03*
X101710000Y-102410000D03*
X101710000Y-101910000D03*
X101710000Y-101410000D03*
X101710000Y-100910000D03*
D38*
X100950000Y-112660000D03*
X100950000Y-98160000D03*
D39*
X94990000Y-112660000D03*
X94990000Y-98160000D03*
%TD*%
D29*
%TO.C,RN1*%
X114300000Y-109029000D03*
X114300000Y-107379000D03*
%TD*%
D26*
%TO.C,R2*%
X196850000Y-106680000D03*
X195200000Y-106680000D03*
%TD*%
D12*
%TO.C,R6*%
X108425000Y-85852000D03*
X110075000Y-85852000D03*
%TD*%
D19*
%TO.C,RP0*%
X115824000Y-105283000D03*
X115824000Y-106933000D03*
%TD*%
D23*
%TO.C,P2*%
X147320000Y-127000000D03*
D24*
X147320000Y-124500000D03*
X147320000Y-122500000D03*
X147320000Y-120000000D03*
D25*
X150030000Y-130070000D03*
X150030000Y-116930000D03*
%TD*%
D40*
%TO.C,U2*%
X166310000Y-105092500D03*
X166310000Y-105727500D03*
X166310000Y-106362500D03*
X166310000Y-106997500D03*
X166310000Y-107632500D03*
X166310000Y-108267500D03*
X166310000Y-108902500D03*
X166310000Y-109537500D03*
X166310000Y-110172500D03*
X166310000Y-110807500D03*
X166310000Y-111442500D03*
X166310000Y-112077500D03*
X166310000Y-112712500D03*
X166310000Y-113347500D03*
X171510000Y-113347500D03*
X171510000Y-112712500D03*
X171510000Y-112077500D03*
X171510000Y-111442500D03*
X171510000Y-110807500D03*
X171510000Y-110172500D03*
X171510000Y-109537500D03*
X171510000Y-108902500D03*
X171510000Y-108267500D03*
X171510000Y-107632500D03*
X171510000Y-106997500D03*
X171510000Y-106362500D03*
X171510000Y-105727500D03*
X171510000Y-105092500D03*
%TD*%
D24*
%TO.C,J5*%
X93040000Y-88392000D03*
X100040000Y-88392000D03*
D41*
X97640000Y-85142000D03*
X94640000Y-85142000D03*
X102740000Y-91642000D03*
X101640000Y-85142000D03*
%TD*%
D35*
%TO.C,C3*%
X177305000Y-111506000D03*
X175755000Y-111506000D03*
%TD*%
D23*
%TO.C,P3*%
X147320000Y-97790000D03*
D24*
X147320000Y-95290000D03*
X147320000Y-93290000D03*
X147320000Y-90790000D03*
D25*
X150030000Y-100860000D03*
X150030000Y-87720000D03*
%TD*%
D20*
%TO.C,U5*%
X107067500Y-106664000D03*
X107067500Y-106164000D03*
D21*
X107030000Y-105664000D03*
D20*
X107067500Y-105164000D03*
X107067500Y-104664000D03*
X106292500Y-104664000D03*
X106292500Y-105164000D03*
D22*
X106267500Y-105664000D03*
D20*
X106292500Y-106164000D03*
X106292500Y-106664000D03*
%TD*%
M02*
